<?xml version="1.0" standalone="no"?><!DOCTYPE svg PUBLIC "-//W3C//DTD SVG 1.1//EN" "http://www.w3.org/Graphics/SVG/1.1/DTD/svg11.dtd"><svg t="1710820661378" class="icon" viewBox="0 0 1024 1024" version="1.1" xmlns="http://www.w3.org/2000/svg" p-id="7031" xmlns:xlink="http://www.w3.org/1999/xlink" width="200" height="200"><path d="M475.431822 177.152c-48.719644 0-88.200533-39.662933-88.200533-88.576 0-48.924444 39.480889-88.576 88.200533-88.576 48.708267 0 88.200533 39.651556 88.200534 88.576 0 48.924444-39.480889 88.576-88.200534 88.576z m0-43.2128a45.272178 45.272178 0 0 0 45.169778-45.3632 45.272178 45.272178 0 0 0-45.169778-45.374578 45.272178 45.272178 0 0 0-45.169778 45.374578 45.272178 45.272178 0 0 0 45.169778 45.3632zM88.200533 643.777422C39.492267 643.777422 0 604.125867 0 555.201422c0-48.913067 39.480889-88.564622 88.200533-88.564622 48.708267 0 88.200533 39.651556 88.200534 88.564622 0 48.924444-39.480889 88.576-88.200534 88.576z m0-43.201422a45.272178 45.272178 0 0 0 45.169778-45.374578 45.272178 45.272178 0 0 0-45.169778-45.3632 45.272178 45.272178 0 0 0-45.169777 45.3632 45.272178 45.272178 0 0 0 45.169777 45.374578zM552.868978 1024c-48.696889 0-88.200533-39.651556-88.200534-88.576 0-48.924444 39.492267-88.576 88.200534-88.576 48.719644 0 88.211911 39.662933 88.211911 88.576 0 48.924444-39.492267 88.576-88.211911 88.576z m0-43.201422a45.272178 45.272178 0 0 0 45.181155-45.374578 45.272178 45.272178 0 0 0-45.169777-45.3632 45.272178 45.272178 0 0 0-45.181156 45.3632 45.272178 45.272178 0 0 0 45.169778 45.374578zM935.799467 574.646044c-48.708267 0-88.200533-39.651556-88.200534-88.564622 0-48.924444 39.480889-88.576 88.200534-88.576 48.708267 0 88.200533 39.651556 88.200533 88.576 0 48.913067-39.480889 88.564622-88.200533 88.564622z m0-43.201422a45.272178 45.272178 0 0 0 45.169777-45.3632 45.272178 45.272178 0 0 0-45.169777-45.374578 45.272178 45.272178 0 0 0-45.169778 45.374578 45.272178 45.272178 0 0 0 45.169778 45.3632z" fill="#148ED0" p-id="7032"></path><path d="M393.841778 61.724444L409.6 111.104c-83.717689 26.965333-148.673422 67.8912-195.447467 122.697956-47.490844 55.660089-80.395378 118.8864-98.827377 189.929244l-49.959823-13.084444c20.411733-78.654578 56.991289-148.935111 109.579378-210.579912 53.327644-62.486756 126.464-108.566756 218.885689-138.3424zM610.349511 61.724444l-15.7696 49.379556c83.706311 26.965333 148.673422 67.8912 195.447467 122.697956 47.490844 55.660089 80.384 118.8864 98.827378 189.929244l49.959822-13.084444c-20.411733-78.654578-56.991289-148.935111-109.579378-210.579912-53.327644-62.486756-126.464-108.566756-218.885689-138.3424zM408.177778 956.120178l15.7696-49.368178c-83.706311-26.965333-148.673422-67.8912-195.436089-122.709333-47.502222-55.660089-80.395378-118.875022-98.838756-189.917867l-49.948444 13.084444c20.411733 78.654578 56.979911 148.935111 109.568 210.568534 53.327644 62.486756 126.475378 108.578133 218.885689 138.353778zM616.641422 942.296178l-15.7696-49.379556c83.706311-26.965333 148.673422-67.8912 195.447467-122.697955 47.490844-55.660089 80.384-118.8864 98.827378-189.929245l49.959822 13.084445c-20.411733 78.654578-56.991289 148.935111-109.590756 210.579911-53.316267 62.486756-126.464 108.566756-218.874311 138.3424z" fill="#148ED0" p-id="7033"></path><path d="M422.149689 493.909333c10.308267 3.4816 17.976889 9.193244 23.028622 17.123556 5.040356 7.930311 7.566222 26.5216 7.566222 55.773867 0 21.720178-2.468978 38.570667-7.395555 50.551466-4.937956 11.9808-13.448533 21.0944-25.554489 27.3408-12.094578 6.2464-27.613867 9.363911-46.546489 9.363911-21.515378 0-38.411378-3.629511-50.676622-10.877155-12.265244-7.259022-20.332089-16.156444-24.200534-26.669511-3.868444-10.524444-5.802667-28.785778-5.802666-54.772623v-21.595022h67.902578v44.373334c0 11.832889 0.705422 19.342222 2.104888 22.539377 1.399467 3.208533 4.5056 4.8128 9.329778 4.8128 5.256533 0 8.738133-2.025244 10.410667-6.075733 1.683911-4.050489 2.525867-14.631822 2.525867-31.732622v-18.898489c0-10.467556-1.183289-18.113422-3.527112-22.960356-2.3552-4.835556-5.825422-8.009956-10.422044-9.534577-4.596622-1.513244-13.505422-2.389333-26.7264-2.616889v-39.662934c16.133689 0 26.112-0.6144 29.923556-1.854577 3.800178-1.240178 6.5536-3.936711 8.226133-8.100978 1.683911-4.164267 2.525867-10.695111 2.525867-19.569778V435.655111c0-9.557333-0.978489-15.860622-2.946845-18.898489-1.956978-3.037867-5.006222-4.551111-9.159111-4.551111-4.699022 0-7.918933 1.592889-9.671111 4.801422-1.729422 3.208533-2.594133 10.046578-2.594133 20.514134v22.436977h-67.902578V436.679111c0-26.100622 5.9392-43.736178 17.8176-52.906667 11.8784-9.170489 30.754133-13.755733 56.638578-13.755733 32.381156 0 54.340267 6.360178 65.877333 19.069156 11.548444 12.720356 17.316978 30.378667 17.316978 52.997689 0 15.303111-2.070756 26.362311-6.223645 33.166222-4.141511 6.803911-11.423289 13.027556-21.845333 18.659555z m100.169955 99.066311v55.694223h-51.256888v-55.694223h51.256888z m178.4832-125.064533v91.136c0 20.707556-1.115022 35.783111-3.356444 45.226667-2.241422 9.454933-6.894933 18.284089-13.949156 26.510222a60.131556 60.131556 0 0 1-25.543111 17.7152c-9.978311 3.595378-21.128533 5.404444-33.450666 5.404444-16.247467 0-29.741511-1.888711-40.504889-5.654755-10.752-3.777422-19.330844-9.648356-25.713778-17.635556-6.382933-7.998578-10.922667-16.406756-13.607822-25.235911-2.696533-8.829156-4.039111-22.869333-4.039111-42.109155v-95.357156c0-25.099378 2.161778-43.884089 6.473955-56.376889 4.312178-12.4928 12.879644-22.505244 25.713778-30.037333 12.822756-7.543467 28.376178-11.309511 46.637511-11.309511 14.904889 0 28.239644 2.616889 40.004267 7.850666 11.764622 5.233778 20.559644 11.605333 26.385066 19.1488s9.773511 16.042667 11.844267 25.486223c2.070756 9.443556 3.106133 24.530489 3.106133 45.238044z m-67.8912-22.960355c0-14.506667-0.705422-23.597511-2.104888-27.249778-1.399467-3.663644-4.676267-5.495467-9.8304-5.495467-5.040356 0-8.374044 1.9456-10.001067 5.825422-1.627022 3.879822-2.434844 12.856889-2.434845 26.919823v133.336177c0 15.860622 0.750933 25.429333 2.275556 28.694756 1.501867 3.265422 4.778667 4.892444 9.819022 4.892444s8.351289-1.911467 9.921422-5.7344c1.570133-3.834311 2.3552-12.435911 2.3552-25.827555V444.950756z" fill="#148ED0" p-id="7034"></path></svg>