<?xml version="1.0" standalone="no"?><!DOCTYPE svg PUBLIC "-//W3C//DTD SVG 1.1//EN" "http://www.w3.org/Graphics/SVG/1.1/DTD/svg11.dtd"><svg t="1711291895536" class="icon" viewBox="0 0 1024 1024" version="1.1" xmlns="http://www.w3.org/2000/svg" p-id="5393" xmlns:xlink="http://www.w3.org/1999/xlink" width="200" height="200"><path d="M1021.452736 513.874786c0 281.365652-228.087085 509.452736-509.452736 509.452736-281.360557 0-509.452736-228.087085-509.452736-509.452736s228.092179-509.452736 509.452736-509.452736c281.365652 0 509.452736 228.087085 509.452736 509.452736" fill="#174F9B" p-id="5394"></path><path d="M979.657234 513.874786c0 258.277254-209.374886 467.657234-467.657234 467.657234-258.277254 0-467.652139-209.37998-467.652139-467.657234C44.347861 255.592438 253.722746 46.217552 512 46.217552c258.282348 0 467.657234 209.374886 467.657234 467.657234" fill="#FFFFFF" p-id="5395"></path><path d="M300.831841 768.973055c0.499264-3.260498 0.748896-6.582129 1.533453-9.776398 4.804139-19.619025 10.046408-39.131065 14.524497-58.821413 5.471522-24.051264 0.876259-46.986826-9.363741-68.969712-22.212139-47.715343-44.689194-95.308418-66.835105-143.054328-14.361473-30.964537-27.301572-62.469095-35.182806-95.843343-4.834706-20.48-2.037811-39.701652 8.563901-57.751562 16.801751-28.590488 39.02408-52.341174 65.439204-72.209831 3.275781-2.460657 7.397254-3.800517 11.121353-5.665115l2.007244 1.467224c-0.850786 9.608279-1.054567 19.328637-2.674627 28.804458-7.300458 42.68195 0.509453 82.587383 19.313353 121.285413a6434.128239 6434.128239 0 0 1 72.637771 154.83797c10.341891 22.803104 18.921075 46.523224 21.702687 71.751323 1.339861 12.181015-0.906826 23.908617-7.157811 34.520518-21.539662 36.543045-49.055204 67.981373-81.955662 94.681791-3.39805 2.756139-7.657075 4.447522-11.513632 6.633074l-2.160079-1.890069" fill="#174F9B" p-id="5396"></path><path d="M508.311562 848.727881c0.6521-4.279403 0.988338-8.640318 2.017433-12.833115 6.30193-25.747741 13.184637-51.368119 19.063721-77.212657 7.178189-31.570786 1.146269-61.679443-12.288-90.534845-29.166169-62.632119-58.668577-125.106308-87.73795-187.784279-18.849751-40.639045-35.834905-81.991323-46.18189-125.804259-6.347781-26.878726-2.679721-52.117015 11.243622-75.811661 22.054209-37.526289 51.220378-68.704796 85.893731-94.778587 4.304876-3.235025 9.710169-4.992637 14.60601-7.43801l2.63387 1.920636c-1.125891 12.61405-1.385711 25.375841-3.515223 37.816677-9.5879 56.024517 0.662289 108.401353 25.355462 159.20398a8425.288597 8425.288597 0 0 1 95.34408 203.246169c13.576915 29.930348 24.840915 61.0681 28.488597 94.187622 1.762706 15.981532-1.192119 31.382289-9.399403 45.310727-28.274627 47.964975-64.384637 89.235741-107.581134 124.291184-4.452617 3.61202-10.046408 5.833234-15.110369 8.701452l-2.832557-2.481034" fill="#47A0F4" p-id="5397"></path><path d="M820.784398 640.208876c-0.229254 13.653333-3.841274 24.866388-10.301134 35.238845a365.033075 365.033075 0 0 1-77.171901 88.456279c-2.43009 2.022527-4.997731 3.989015-7.794627 5.420577-1.986866 1.013811-4.462806 1.08004-6.719681 1.56402-0.285294-2.496318-1.29401-5.17604-0.738707-7.468577 2.776517-11.350607 6.20004-22.543284 8.94599-33.898985 2.919164-12.058746 5.955502-24.14806 7.830289-36.395304 3.28597-21.463244-2.027622-41.703801-11.004179-61.022248-22.298746-47.964975-44.99996-95.746547-67.201911-143.757374-14.427701-31.198886-27.653095-62.897035-34.933174-96.709412-4.004299-18.605214-1.757612-36.390209 7.626508-53.044219 16.939303-30.032239 40.002229-54.608239 67.456636-75.225791 0.580776-0.438129 1.166647-0.998527 1.839125-1.181931 3.092378-0.840597 6.225512-1.56402 9.338268-2.328199 0.290388 3.031244 1.13608 6.128716 0.779463 9.083543-3.647682 30.495841-9.409592 61.124139-0.580776 91.477333a377.866189 377.866189 0 0 0 18.742766 50.552995c24.896955 54.801831 51.210189 108.961751 75.541652 164.003025 8.090109 18.304637 11.890627 38.519721 17.494607 57.904398 0.794746 2.761234 0.687761 5.787383 0.850786 7.331025" fill="#174F9B" p-id="5398"></path></svg>